<?xml version="1.0" encoding="UTF-8"?>
<svg id="Warstwa_1" data-name="Warstwa 1" xmlns="http://www.w3.org/2000/svg" viewBox="0 0 500 500">
  <defs>
    <style>
      .cls-1 {
        stroke-width: 0px;
      }

      .cls-1, .cls-2 {
        fill: #4c6e4f;
      }

      .cls-2 {
        stroke: #fff;
        stroke-miterlimit: 10;
      }
    </style>
  </defs>
  <g>
    <path class="cls-2" d="M306.73,149.5c0-1.69,2.87-4,4.42-4.41v-26.49c0-2.11-4.41-5.63-5.89-6.62h-5.89l-5.33-4.98.17-3.85c-1.17-1.74-9.71-8.09-11.05-8.09h-6.63l-.7-2.22c-7.01-.14-11.57-8.81-14.77-8.81h-6.63c-.44,1.64-.17,2.21-2.21,2.21h-6.63l-3.12,4.27-15.29.15-5.01,4.56-6.04-.15c-3.93,2.63-7.98,2.55-8.1,8.09l-2.16.87-.06,2.07c0,2.19-6.77,8.28-8.84,8.83v8.83c0,2.03-.57,1.77-2.21,2.21v2.2c0,1.65-.58,1.62-1.47,2.94v5.89l-6.93,7.07-.43,8.38c0,1.73-6.21,7.59-8.11,8.09v8.83c1.64.44,2.21.17,2.21,2.21v2.21c0,1.7-.51,2.21-2.21,2.21h-4.42l-1.84,2.58-.37,6.25c0,1.69-.51,2.2-2.21,2.2h-2.21l-4.03,4.81-.4,1.81c0,2.03-.57,1.77-2.21,2.21v2.21c0,2.04-.57,1.77-2.21,2.21v6.62c0,3.58,7.27,10.17,8.84,12.51v10.3c.94,1.4,17.09,14.72,17.68,14.72h10.31c1.8,0,6.63-4.83,6.63-6.62v-2.21h17.68c1.04,2.86,4.42,3.55,4.42,5.89v2.21l5.64,2.71,1.12,1.65,2.07.05c.44-1.64.17-2.21,2.21-2.21h2.21c1.43,0,4.42,2.99,4.42,4.41,0,2.11-4.41,5.63-5.89,6.62h-4.42l-.87,2.15-15.33.06c-2.04,0-1.77.57-2.21,2.2h-12.52c-2.71,0-1.71,2.21-4.42,2.21h-2.94c-2.71,0-1.71-2.21-4.42-2.21h-14.73c-1.78,0-4.42,2.64-4.42,4.42v2.21h45.67c.44-1.64.17-2.21,2.21-2.21h28.73c2.04,0,1.77.57,2.21,2.21l3.65-2.25.91,2.2c3.25-.85,1.72-2.16,4.28-2.16h21.36c.44,1.64.17,2.21,2.21,2.21h24.31v-2.21c0-1.51-14.99-8.83-15.47-8.83h-25.78l-4.02-4.81-.4-10.64c0-3.63,8.27-2.21,11.79-2.21,1.52-1.01,1.91-2.21,3.68-2.21h3.68c2.71,0,1.71,2.21,4.42,2.21h.74c.56,0,7-3.33,7.53-4.25,1.02-1.75,3.48-6.42,3.52-8.26h3.68c2.71,0,1.71-2.21,4.42-2.21h.73c.89,0,13.02,10.13,13.26,11.04h8.1c2.04,0,1.77-.57,2.21-2.21h2.21c1.7,0,2.21-.51,2.21-2.21v-6.62c1.62-.43,6.63-5.05,6.63-6.62v-4.41c1.64-.44,2.21-.17,2.21-2.21v-2.21c1.64-.44,2.21-.17,2.21-2.21,0-3.58-7.27-10.17-8.84-12.51v-10.3l-8.64-11.92-.2-7.94-7.93-8.27-3.86.18c-1.48-.99-5.89-4.51-5.89-6.62Z"/>
    <path class="cls-2" d="M248.64,335.02c-83.07,0-150.65-67.58-150.65-150.65S165.58,33.72,248.64,33.72s150.65,67.58,150.65,150.65-67.58,150.65-150.65,150.65ZM248.64,48.11c-75.14,0-136.27,61.13-136.27,136.27s61.13,136.27,136.27,136.27,136.27-61.13,136.27-136.27S323.78,48.11,248.64,48.11Z"/>
  </g>
  <g>
    <path class="cls-1" d="M74.23,395.5h-17.99v14.71h20.9v4.48h-26.37v-41.51h26.08v4.48h-20.61v13.37h17.99v4.48Z"/>
    <path class="cls-1" d="M89.28,383.84l.17,3.88c2.36-2.96,5.43-4.45,9.24-4.45,6.52,0,9.81,3.68,9.86,11.03v20.38h-5.27v-20.41c-.02-2.22-.53-3.87-1.53-4.93-1-1.06-2.55-1.6-4.66-1.6-1.71,0-3.21.46-4.5,1.37-1.29.91-2.3,2.11-3.02,3.59v21.98h-5.27v-30.84h4.99Z"/>
    <path class="cls-1" d="M126.68,407.53l7.64-23.69h5.39l-11.06,30.84h-4.02l-11.17-30.84h5.39l7.84,23.69Z"/>
    <path class="cls-1" d="M145.98,375.66c0-.86.26-1.58.78-2.17.52-.59,1.3-.88,2.32-.88s1.81.3,2.34.88c.53.59.8,1.31.8,2.17s-.27,1.57-.8,2.14c-.53.57-1.31.85-2.34.85s-1.8-.29-2.32-.85c-.52-.57-.78-1.28-.78-2.14ZM151.68,414.68h-5.27v-30.84h5.27v30.84Z"/>
    <path class="cls-1" d="M176.2,388.57c-.8-.13-1.66-.2-2.59-.2-3.46,0-5.81,1.47-7.04,4.42v21.89h-5.27v-30.84h5.13l.09,3.56c1.73-2.76,4.18-4.13,7.36-4.13,1.03,0,1.8.13,2.34.4v4.9Z"/>
    <path class="cls-1" d="M177.89,398.98c0-3.02.59-5.74,1.78-8.15,1.19-2.41,2.84-4.28,4.96-5.59,2.12-1.31,4.54-1.97,7.25-1.97,4.2,0,7.6,1.45,10.19,4.36,2.59,2.91,3.89,6.78,3.89,11.6v.37c0,3-.57,5.7-1.72,8.08-1.15,2.39-2.79,4.24-4.93,5.57-2.14,1.33-4.59,2-7.37,2-4.18,0-7.57-1.45-10.16-4.36-2.59-2.91-3.89-6.76-3.89-11.55v-.37ZM183.2,399.6c0,3.42.79,6.17,2.38,8.24,1.59,2.07,3.71,3.11,6.37,3.11s4.81-1.05,6.39-3.15c1.58-2.1,2.37-5.04,2.37-8.82,0-3.38-.8-6.12-2.41-8.22-1.61-2.1-3.74-3.15-6.4-3.15s-4.7,1.04-6.3,3.11c-1.6,2.07-2.39,5.04-2.39,8.89Z"/>
    <path class="cls-1" d="M226.81,396.18c-4.69-1.35-8.11-3.01-10.25-4.97s-3.21-4.39-3.21-7.28c0-3.27,1.31-5.97,3.92-8.11,2.61-2.14,6.01-3.21,10.19-3.21,2.85,0,5.39.55,7.63,1.65,2.23,1.1,3.96,2.62,5.19,4.56,1.23,1.94,1.84,4.06,1.84,6.36h-5.5c0-2.52-.8-4.5-2.39-5.94-1.6-1.44-3.85-2.16-6.76-2.16-2.7,0-4.8.59-6.31,1.79s-2.27,2.84-2.27,4.95c0,1.7.72,3.13,2.15,4.3,1.44,1.17,3.88,2.24,7.33,3.21,3.45.97,6.15,2.04,8.1,3.21,1.95,1.17,3.39,2.53,4.33,4.09.94,1.56,1.41,3.39,1.41,5.5,0,3.36-1.31,6.06-3.93,8.08-2.62,2.02-6.13,3.04-10.52,3.04-2.85,0-5.51-.55-7.98-1.64-2.47-1.09-4.38-2.59-5.72-4.49-1.34-1.9-2.01-4.06-2.01-6.47h5.5c0,2.51.93,4.49,2.78,5.94,1.85,1.45,4.33,2.18,7.43,2.18,2.89,0,5.1-.59,6.64-1.77,1.54-1.18,2.31-2.78,2.31-4.82s-.71-3.61-2.14-4.72c-1.43-1.11-4.01-2.21-7.75-3.29Z"/>
    <path class="cls-1" d="M246.99,398.98c0-3.02.59-5.74,1.78-8.15,1.19-2.41,2.84-4.28,4.96-5.59,2.12-1.31,4.54-1.97,7.25-1.97,4.2,0,7.6,1.45,10.19,4.36,2.59,2.91,3.89,6.78,3.89,11.6v.37c0,3-.57,5.7-1.72,8.08-1.15,2.39-2.79,4.24-4.93,5.57-2.14,1.33-4.59,2-7.37,2-4.18,0-7.57-1.45-10.16-4.36-2.59-2.91-3.89-6.76-3.89-11.55v-.37ZM252.3,399.6c0,3.42.79,6.17,2.38,8.24,1.59,2.07,3.71,3.11,6.37,3.11s4.81-1.05,6.39-3.15c1.58-2.1,2.37-5.04,2.37-8.82,0-3.38-.8-6.12-2.41-8.22-1.61-2.1-3.74-3.15-6.4-3.15s-4.7,1.04-6.3,3.11c-1.6,2.07-2.39,5.04-2.39,8.89Z"/>
    <path class="cls-1" d="M287.42,414.68h-5.27v-43.79h5.27v43.79Z"/>
    <path class="cls-1" d="M313.73,411.63c-2.05,2.41-5.06,3.62-9.04,3.62-3.29,0-5.79-.95-7.51-2.87-1.72-1.91-2.59-4.74-2.61-8.48v-20.07h5.27v19.93c0,4.67,1.9,7.01,5.7,7.01,4.03,0,6.71-1.5,8.04-4.5v-22.43h5.27v30.84h-5.02l-.11-3.05Z"/>
    <path class="cls-1" d="M334.03,376.37v7.47h5.76v4.08h-5.76v19.15c0,1.24.26,2.17.77,2.78.51.62,1.39.93,2.62.93.61,0,1.44-.11,2.51-.34v4.25c-1.39.38-2.74.57-4.05.57-2.36,0-4.13-.71-5.33-2.14-1.2-1.43-1.8-3.45-1.8-6.07v-19.13h-5.62v-4.08h5.62v-7.47h5.27Z"/>
    <path class="cls-1" d="M345.97,375.66c0-.86.26-1.58.78-2.17.52-.59,1.3-.88,2.32-.88s1.81.3,2.34.88c.53.59.8,1.31.8,2.17s-.27,1.57-.8,2.14c-.53.57-1.31.85-2.34.85s-1.8-.29-2.32-.85c-.52-.57-.78-1.28-.78-2.14ZM351.67,414.68h-5.27v-30.84h5.27v30.84Z"/>
    <path class="cls-1" d="M358.71,398.98c0-3.02.59-5.74,1.78-8.15,1.19-2.41,2.84-4.28,4.96-5.59,2.12-1.31,4.54-1.97,7.25-1.97,4.2,0,7.6,1.45,10.19,4.36,2.59,2.91,3.89,6.78,3.89,11.6v.37c0,3-.57,5.7-1.72,8.08-1.15,2.39-2.79,4.24-4.93,5.57-2.14,1.33-4.59,2-7.37,2-4.18,0-7.57-1.45-10.16-4.36-2.59-2.91-3.89-6.76-3.89-11.55v-.37ZM364.02,399.6c0,3.42.79,6.17,2.38,8.24,1.59,2.07,3.71,3.11,6.37,3.11s4.81-1.05,6.39-3.15c1.58-2.1,2.37-5.04,2.37-8.82,0-3.38-.8-6.12-2.41-8.22-1.61-2.1-3.74-3.15-6.4-3.15s-4.7,1.04-6.3,3.11c-1.6,2.07-2.39,5.04-2.39,8.89Z"/>
    <path class="cls-1" d="M398.4,383.84l.17,3.88c2.36-2.96,5.44-4.45,9.24-4.45,6.52,0,9.81,3.68,9.86,11.03v20.38h-5.27v-20.41c-.02-2.22-.53-3.87-1.53-4.93-1-1.06-2.55-1.6-4.66-1.6-1.71,0-3.21.46-4.5,1.37-1.29.91-2.3,2.11-3.02,3.59v21.98h-5.27v-30.84h4.99Z"/>
    <path class="cls-1" d="M441.24,406.5c0-1.43-.54-2.53-1.61-3.32-1.07-.79-2.95-1.47-5.62-2.04-2.67-.57-4.79-1.25-6.36-2.05s-2.73-1.75-3.48-2.85c-.75-1.1-1.13-2.41-1.13-3.93,0-2.53,1.07-4.67,3.21-6.41,2.14-1.75,4.87-2.62,8.2-2.62,3.5,0,6.33.9,8.51,2.71,2.18,1.81,3.26,4.11,3.26,6.93h-5.3c0-1.44-.61-2.69-1.84-3.73-1.23-1.04-2.77-1.57-4.63-1.57s-3.42.42-4.5,1.25c-1.08.84-1.63,1.93-1.63,3.28,0,1.27.5,2.23,1.51,2.88,1.01.65,2.83,1.26,5.46,1.85,2.63.59,4.76,1.29,6.4,2.11,1.63.82,2.85,1.8,3.63,2.95.79,1.15,1.18,2.55,1.18,4.2,0,2.76-1.1,4.97-3.31,6.63-2.2,1.66-5.06,2.49-8.58,2.49-2.47,0-4.66-.44-6.56-1.31-1.9-.87-3.39-2.1-4.46-3.66-1.07-1.57-1.61-3.26-1.61-5.09h5.27c.09,1.77.8,3.17,2.12,4.2,1.32,1.04,3.06,1.55,5.23,1.55,2,0,3.6-.4,4.8-1.21,1.21-.81,1.81-1.89,1.81-3.24Z"/>
  </g>
  <g>
    <path class="cls-1" d="M43.69,455.49c0,.72-.13,1.35-.4,1.9s-.65,1.01-1.14,1.37c-.49.37-1.07.64-1.74.83-.67.18-1.4.28-2.18.28-.47,0-.92-.04-1.35-.11-.43-.07-.81-.16-1.15-.27s-.62-.22-.85-.33c-.23-.11-.39-.22-.5-.32-.1-.1-.18-.26-.24-.47s-.09-.53-.09-.94c0-.27,0-.49.03-.66.02-.17.05-.3.09-.4.04-.1.09-.17.14-.2.06-.03.13-.05.21-.05.1,0,.26.06.46.18.2.12.46.25.76.39.3.14.65.27,1.06.4.4.12.86.18,1.37.18.32,0,.61-.03.86-.1.25-.07.47-.16.65-.28.18-.12.32-.28.42-.47.09-.19.14-.41.14-.65,0-.28-.09-.53-.26-.73-.17-.2-.41-.38-.69-.53-.29-.15-.61-.29-.98-.42-.36-.13-.74-.28-1.12-.44-.38-.16-.76-.34-1.12-.55-.36-.21-.69-.46-.98-.76-.29-.3-.52-.67-.69-1.09-.17-.43-.26-.94-.26-1.53s.12-1.16.35-1.66c.24-.5.58-.94,1.02-1.3.44-.36.98-.64,1.62-.84.64-.2,1.35-.3,2.15-.3.4,0,.78.03,1.15.09s.71.13,1.01.21c.3.09.56.18.76.28s.36.18.45.25.15.14.19.21c.04.07.07.16.08.25.02.1.04.22.05.37.01.15.02.33.02.55,0,.25,0,.46-.02.62-.01.16-.04.29-.07.38-.03.09-.08.16-.13.19s-.12.05-.2.05c-.09,0-.22-.05-.4-.15-.18-.1-.4-.21-.67-.32-.27-.11-.58-.22-.93-.32-.35-.1-.76-.15-1.21-.15-.32,0-.6.03-.84.1s-.43.16-.58.28c-.15.12-.26.27-.34.43-.08.17-.11.34-.11.53,0,.29.09.54.27.74.18.2.42.37.71.52s.63.29,1,.42c.37.13.75.28,1.13.43.38.16.76.34,1.13.55.37.21.71.46,1,.76s.53.66.71,1.08c.18.42.27.92.27,1.49Z"/>
    <path class="cls-1" d="M53.83,459.54l-1.53,4.48c-.09.24-.32.41-.69.51-.38.1-.93.16-1.66.16-.38,0-.68-.02-.91-.05-.23-.03-.4-.09-.51-.16-.11-.08-.17-.17-.18-.28,0-.11.02-.25.09-.41l1.69-4.24c-.12-.06-.23-.14-.33-.26-.1-.12-.17-.24-.22-.38l-4.35-11.62c-.12-.33-.18-.58-.18-.76s.06-.31.17-.41c.11-.1.3-.17.57-.21.27-.04.63-.06,1.07-.06.41,0,.73,0,.96.02s.42.05.55.11c.13.06.23.14.3.26.07.12.13.29.2.5l2.98,8.46h.04l2.72-8.63c.06-.25.13-.41.22-.49.09-.08.24-.14.45-.18.21-.04.57-.06,1.09-.06.41,0,.74.02,1.01.06.27.04.47.11.59.21.13.1.19.24.19.42s-.04.38-.11.62l-4.21,12.38Z"/>
    <path class="cls-1" d="M69.56,455.49c0,.72-.13,1.35-.4,1.9s-.65,1.01-1.14,1.37c-.49.37-1.07.64-1.74.83-.67.18-1.4.28-2.18.28-.47,0-.92-.04-1.35-.11-.43-.07-.81-.16-1.15-.27s-.62-.22-.85-.33c-.23-.11-.39-.22-.5-.32-.1-.1-.18-.26-.24-.47s-.09-.53-.09-.94c0-.27,0-.49.03-.66.02-.17.05-.3.09-.4.04-.1.09-.17.14-.2.06-.03.13-.05.21-.05.1,0,.26.06.46.18.2.12.46.25.76.39.3.14.65.27,1.06.4.4.12.86.18,1.37.18.32,0,.61-.03.86-.1.25-.07.47-.16.65-.28.18-.12.32-.28.42-.47.09-.19.14-.41.14-.65,0-.28-.09-.53-.26-.73-.17-.2-.41-.38-.69-.53-.29-.15-.61-.29-.98-.42-.36-.13-.74-.28-1.12-.44-.38-.16-.76-.34-1.12-.55-.36-.21-.69-.46-.98-.76-.29-.3-.52-.67-.69-1.09-.17-.43-.26-.94-.26-1.53s.12-1.16.35-1.66c.24-.5.58-.94,1.02-1.3.44-.36.98-.64,1.62-.84.64-.2,1.35-.3,2.15-.3.4,0,.78.03,1.15.09s.71.13,1.01.21c.3.09.56.18.76.28s.36.18.45.25.15.14.19.21c.04.07.07.16.08.25.02.1.04.22.05.37.01.15.02.33.02.55,0,.25,0,.46-.02.62-.01.16-.04.29-.07.38-.03.09-.08.16-.13.19s-.12.05-.2.05c-.09,0-.22-.05-.4-.15-.18-.1-.4-.21-.67-.32-.27-.11-.58-.22-.93-.32-.35-.1-.76-.15-1.21-.15-.32,0-.6.03-.84.1s-.43.16-.58.28c-.15.12-.26.27-.34.43-.08.17-.11.34-.11.53,0,.29.09.54.27.74.18.2.42.37.71.52s.63.29,1,.42c.37.13.75.28,1.13.43.38.16.76.34,1.13.55.37.21.71.46,1,.76s.53.66.71,1.08c.18.42.27.92.27,1.49Z"/>
    <path class="cls-1" d="M79.97,457.81c0,.42-.03.73-.08.96-.05.22-.12.38-.21.47-.09.09-.21.17-.38.24-.17.07-.36.13-.58.18-.22.05-.46.09-.72.12-.26.03-.52.04-.79.04-.71,0-1.32-.09-1.84-.27s-.95-.46-1.29-.83-.59-.84-.75-1.41c-.16-.57-.24-1.24-.24-2.01v-6.47h-1.52c-.18,0-.32-.11-.41-.33s-.14-.59-.14-1.11c0-.27.01-.51.04-.69.02-.19.06-.34.11-.45.05-.11.11-.19.18-.23.07-.05.15-.07.25-.07h1.5v-2.82c0-.09.03-.18.08-.25s.15-.14.28-.19c.14-.05.32-.09.55-.11.23-.02.52-.04.86-.04s.64.01.87.04c.23.02.41.06.55.11.13.05.23.12.28.19s.09.16.09.25v2.82h2.75c.09,0,.18.02.25.07s.13.13.18.23c.05.11.08.26.11.45.02.19.04.42.04.69,0,.52-.05.89-.14,1.11-.09.22-.23.33-.41.33h-2.76v5.94c0,.69.11,1.21.33,1.55s.6.52,1.16.52c.19,0,.36-.02.51-.05s.29-.07.4-.11c.12-.04.22-.08.3-.11.08-.03.15-.05.22-.05.06,0,.11.02.16.05.05.03.09.1.12.2s.05.23.08.4c.02.17.04.39.04.65Z"/>
    <path class="cls-1" d="M93.88,452.37c0,.43-.1.76-.29.96-.19.21-.46.31-.8.31h-7.69c0,.54.06,1.03.19,1.47.13.44.33.81.61,1.12s.64.54,1.08.7c.44.16.97.24,1.58.24s1.17-.04,1.64-.13c.47-.09.88-.19,1.23-.3.34-.11.63-.21.86-.3.23-.09.41-.13.55-.13.09,0,.16.02.21.05.06.03.1.09.14.18.04.08.06.21.08.36.01.16.02.35.02.59,0,.21,0,.39-.01.53,0,.15-.02.27-.04.38-.02.1-.05.19-.09.26s-.09.14-.15.21c-.06.07-.23.16-.5.27-.27.11-.62.22-1.05.33-.42.11-.91.2-1.46.28-.55.08-1.13.12-1.76.12-1.12,0-2.11-.14-2.95-.43-.85-.28-1.55-.71-2.12-1.29s-.99-1.3-1.27-2.18c-.28-.88-.42-1.91-.42-3.09s.15-2.14.44-3.04c.29-.9.72-1.67,1.27-2.3.56-.63,1.23-1.11,2.03-1.44.8-.33,1.7-.5,2.7-.5,1.06,0,1.96.16,2.71.47.75.31,1.37.74,1.85,1.3.48.55.84,1.21,1.06,1.96s.34,1.58.34,2.47v.57ZM90.42,451.35c.03-1-.17-1.79-.6-2.36-.43-.57-1.09-.86-1.99-.86-.45,0-.85.09-1.18.25-.34.17-.61.4-.84.69-.22.29-.39.63-.51,1.02-.12.39-.19.81-.21,1.25h5.33Z"/>
    <path class="cls-1" d="M116.92,459.06c0,.09-.03.18-.08.25-.06.07-.15.13-.28.18-.13.05-.31.08-.54.11-.23.02-.52.04-.86.04s-.65-.01-.88-.04c-.23-.02-.41-.06-.55-.11-.14-.05-.23-.11-.28-.18-.05-.07-.08-.15-.08-.25v-7.49c0-.43-.04-.81-.12-1.16-.08-.35-.2-.65-.37-.9-.17-.25-.37-.44-.62-.58-.25-.14-.55-.21-.9-.21-.42,0-.85.17-1.29.5-.43.33-.91.81-1.42,1.45v8.4c0,.09-.03.18-.09.25-.06.07-.15.13-.29.18-.14.05-.32.08-.55.11-.23.02-.51.04-.85.04s-.64-.01-.86-.04c-.23-.02-.41-.06-.55-.11-.14-.05-.23-.11-.29-.18-.06-.07-.09-.15-.09-.25v-7.49c0-.43-.04-.81-.12-1.16-.08-.35-.2-.65-.36-.9-.16-.25-.37-.44-.62-.58-.25-.14-.55-.21-.89-.21-.43,0-.87.17-1.3.5-.43.33-.9.81-1.4,1.45v8.4c0,.09-.03.18-.09.25s-.15.13-.29.18c-.14.05-.32.08-.55.11-.23.02-.51.04-.86.04s-.64-.01-.86-.04c-.23-.02-.41-.06-.55-.11-.14-.05-.23-.11-.29-.18s-.08-.15-.08-.25v-12.64c0-.09.02-.18.07-.25s.13-.13.25-.18c.12-.05.28-.08.47-.11.19-.02.44-.04.73-.04s.55.01.75.04c.2.02.35.06.46.11.11.05.19.11.23.18s.07.15.07.25v1.46c.7-.76,1.4-1.32,2.09-1.7.69-.38,1.42-.57,2.17-.57.52,0,.99.05,1.4.16.42.11.79.26,1.11.47s.61.45.84.73.43.6.6.95c.38-.41.75-.76,1.11-1.05.36-.29.72-.53,1.08-.72s.71-.32,1.06-.41c.35-.09.72-.13,1.08-.13.84,0,1.55.14,2.13.43.58.28,1.04.67,1.4,1.15.35.49.61,1.06.76,1.71.15.65.23,1.34.23,2.07v8.09Z"/>
    <path class="cls-1" d="M127.22,459.54l-1.53,4.48c-.09.24-.32.41-.69.51-.38.1-.93.16-1.66.16-.38,0-.68-.02-.91-.05-.23-.03-.4-.09-.51-.16-.11-.08-.17-.17-.18-.28,0-.11.02-.25.09-.41l1.69-4.24c-.12-.06-.23-.14-.33-.26-.1-.12-.17-.24-.22-.38l-4.35-11.62c-.12-.33-.18-.58-.18-.76s.06-.31.17-.41c.11-.1.3-.17.57-.21.27-.04.63-.06,1.07-.06.41,0,.73,0,.96.02s.42.05.55.11c.13.06.23.14.3.26.07.12.13.29.2.5l2.98,8.46h.04l2.72-8.63c.06-.25.13-.41.22-.49.09-.08.24-.14.45-.18.21-.04.57-.06,1.09-.06.41,0,.74.02,1.01.06.27.04.47.11.59.21.13.1.19.24.19.42s-.04.38-.11.62l-4.21,12.38Z"/>
    <path class="cls-1" d="M144.04,442.14c0,.72-.15,1.21-.44,1.49-.29.27-.84.41-1.63.41s-1.34-.13-1.62-.4c-.28-.26-.42-.74-.42-1.43s.14-1.22.43-1.49.83-.42,1.64-.42,1.33.13,1.62.4.43.75.43,1.44ZM143.77,459.06c0,.09-.03.18-.09.25s-.15.13-.29.18c-.14.05-.32.08-.55.11-.23.02-.51.04-.86.04s-.64-.01-.86-.04c-.23-.02-.41-.06-.55-.11-.14-.05-.23-.11-.29-.18s-.08-.15-.08-.25v-12.61c0-.09.03-.18.08-.25s.15-.13.29-.18.32-.09.55-.12.51-.04.86-.04.64.01.86.04.41.07.55.12c.14.05.23.11.29.18s.09.15.09.25v12.61Z"/>
    <path class="cls-1" d="M165.95,459.06c0,.09-.03.18-.09.25s-.15.13-.28.18c-.13.05-.31.08-.55.11-.23.02-.52.04-.86.04s-.64-.01-.87-.04c-.23-.02-.41-.06-.55-.11-.13-.05-.23-.11-.28-.18-.06-.07-.09-.15-.09-.25v-7.21c0-.61-.04-1.1-.13-1.45-.09-.35-.22-.65-.39-.9-.17-.25-.39-.44-.66-.58-.27-.14-.58-.21-.94-.21-.45,0-.91.17-1.37.5-.46.33-.94.81-1.45,1.45v8.4c0,.09-.03.18-.09.25s-.15.13-.29.18c-.14.05-.32.08-.55.11-.23.02-.51.04-.86.04s-.64-.01-.86-.04c-.23-.02-.41-.06-.55-.11-.14-.05-.23-.11-.29-.18s-.08-.15-.08-.25v-12.64c0-.09.02-.18.07-.25s.13-.13.25-.18c.12-.05.28-.08.47-.11.19-.02.44-.04.73-.04s.55.01.75.04c.2.02.35.06.46.11.11.05.19.11.23.18s.07.15.07.25v1.46c.7-.76,1.41-1.32,2.13-1.7.72-.38,1.48-.57,2.26-.57.86,0,1.58.14,2.17.43.59.28,1.07.67,1.43,1.15.36.49.63,1.06.79,1.71.16.65.24,1.44.24,2.35v7.81Z"/>
    <path class="cls-1" d="M180.22,459.1c0,.13-.05.24-.14.31-.09.08-.24.13-.45.16-.2.03-.5.05-.9.05-.42,0-.73-.02-.93-.05-.19-.03-.33-.09-.41-.16-.08-.08-.12-.18-.12-.31v-1.01c-.52.56-1.11.99-1.78,1.3-.67.31-1.41.47-2.22.47-.67,0-1.29-.09-1.85-.26s-1.05-.43-1.46-.78-.73-.77-.96-1.28c-.23-.51-.34-1.11-.34-1.78,0-.74.14-1.38.43-1.92.29-.54.72-.99,1.29-1.35.57-.35,1.28-.62,2.13-.79.85-.17,1.84-.25,2.96-.25h1.23v-.76c0-.4-.04-.74-.12-1.04s-.21-.55-.4-.74c-.18-.2-.43-.34-.74-.44-.31-.09-.69-.14-1.14-.14-.6,0-1.13.07-1.59.2s-.88.28-1.24.44c-.36.16-.66.31-.9.44-.24.13-.44.2-.59.2-.1,0-.2-.03-.28-.1-.08-.07-.15-.16-.2-.28-.05-.12-.09-.27-.12-.45s-.04-.38-.04-.6c0-.29.02-.52.07-.69.05-.17.14-.32.27-.46.13-.14.36-.29.69-.45.33-.17.72-.32,1.16-.46.44-.14.93-.26,1.45-.35s1.06-.13,1.62-.13c.99,0,1.84.1,2.54.29.7.19,1.28.49,1.74.89.45.4.78.92.99,1.55.21.63.31,1.38.31,2.25v8.5ZM176.72,453.69h-1.36c-.58,0-1.07.04-1.47.13-.41.08-.74.21-.99.38-.26.17-.44.38-.56.62-.12.24-.18.52-.18.83,0,.53.17.94.5,1.25s.8.45,1.4.45c.5,0,.96-.13,1.38-.38s.85-.63,1.28-1.12v-2.15Z"/>
    <path class="cls-1" d="M191.9,447.6c0,.34,0,.62-.03.84-.02.22-.05.39-.09.51-.04.12-.09.21-.15.25-.06.05-.14.07-.23.07-.08,0-.16-.02-.25-.05-.09-.03-.2-.07-.32-.11s-.25-.07-.39-.11-.3-.05-.47-.05c-.2,0-.4.04-.6.12-.2.08-.4.21-.62.38-.21.17-.43.4-.67.68s-.48.63-.74,1.05v7.88c0,.09-.03.18-.08.25-.06.07-.15.13-.29.18-.14.05-.32.08-.55.11-.23.02-.51.04-.86.04s-.64-.01-.86-.04c-.23-.02-.41-.06-.55-.11-.14-.05-.23-.11-.29-.18s-.09-.15-.09-.25v-12.64c0-.09.02-.18.07-.25.05-.07.13-.13.25-.18s.28-.08.47-.11c.19-.02.44-.04.73-.04s.55.01.75.04c.2.02.35.06.46.11.11.05.19.11.23.18s.07.15.07.25v1.57c.33-.47.64-.86.94-1.17.29-.31.57-.55.84-.73.26-.18.53-.3.79-.38.26-.07.53-.11.79-.11.12,0,.26,0,.4.02.14.01.29.04.44.07.15.03.28.07.4.11.11.04.2.09.25.13.05.05.09.1.11.16.02.06.04.13.06.23.02.1.03.25.04.45s.01.47.01.81Z"/>
    <path class="cls-1" d="M202.93,458.08c0,.27-.01.51-.04.7s-.07.35-.11.46-.11.19-.18.23-.16.06-.25.06h-8.26c-.26,0-.45-.09-.59-.25-.14-.17-.21-.45-.21-.84v-.65c0-.17,0-.32.02-.46.01-.14.04-.27.09-.4.04-.13.1-.26.17-.39s.16-.28.28-.44l4.73-7.31h-4.48c-.18,0-.32-.11-.43-.34-.11-.23-.16-.59-.16-1.09,0-.27.01-.5.04-.69.02-.18.06-.33.11-.44.05-.11.11-.19.18-.23s.17-.07.27-.07h7.72c.13,0,.25.01.34.04s.17.08.23.16c.06.08.11.18.14.31.03.13.05.3.05.5v.69c0,.19-.01.36-.03.5-.02.15-.05.29-.09.42-.04.13-.09.26-.16.4-.07.13-.15.27-.25.43l-4.7,7.3h4.99c.09,0,.16.02.24.06.07.04.14.11.19.21.05.1.09.25.12.43.03.18.04.42.04.7Z"/>
    <path class="cls-1" d="M217.33,452.37c0,.43-.1.76-.29.96-.19.21-.46.31-.8.31h-7.69c0,.54.06,1.03.19,1.47s.33.81.61,1.12.64.54,1.08.7c.44.16.97.24,1.58.24s1.17-.04,1.64-.13c.47-.09.88-.19,1.23-.3.34-.11.63-.21.86-.3.23-.09.41-.13.55-.13.09,0,.16.02.21.05.06.03.1.09.14.18.04.08.06.21.08.36.01.16.02.35.02.59,0,.27,0,.5-.01.69s-.03.34-.06.47c-.03.13-.09.24-.16.34s-.17.21-.29.33l-1.43,1.45c-.22.22-.36.4-.42.55-.07.15-.1.29-.1.42,0,.19.07.34.2.44.13.1.37.16.71.16h1.22c.17,0,.3.06.38.17.08.11.12.35.12.71,0,.21,0,.38-.03.52-.02.14-.05.25-.09.33-.04.08-.1.15-.17.2s-.16.09-.26.11c-.36.12-.72.21-1.08.27-.36.06-.77.08-1.21.08-1.01,0-1.8-.19-2.36-.57-.56-.38-.84-.94-.84-1.7,0-.2.02-.39.05-.56.03-.17.09-.35.17-.51s.18-.33.31-.5c.13-.17.28-.34.46-.52l.65-.67c-.16.03-.34.05-.54.07-.2.02-.42.03-.67.03-1.03,0-1.94-.14-2.73-.42-.79-.28-1.45-.71-1.99-1.28-.54-.57-.94-1.29-1.22-2.15-.27-.86-.41-1.88-.41-3.05s.15-2.14.44-3.04c.29-.9.72-1.67,1.28-2.3.56-.63,1.24-1.11,2.03-1.44.8-.33,1.7-.5,2.7-.5,1.06,0,1.96.16,2.71.47.75.31,1.37.74,1.85,1.3s.84,1.21,1.06,1.96c.23.76.34,1.58.34,2.47v.57ZM213.87,451.35c.03-1-.17-1.79-.6-2.36s-1.09-.86-1.99-.86c-.45,0-.85.09-1.18.25-.34.17-.61.4-.84.69-.22.29-.39.63-.51,1.02-.12.39-.19.81-.2,1.25h5.33Z"/>
    <path class="cls-1" d="M232.25,459.06c0,.1-.02.19-.07.26s-.13.13-.24.18c-.11.05-.27.08-.46.1-.19.02-.43.03-.72.03-.3,0-.55,0-.74-.03-.19-.02-.34-.05-.46-.1-.12-.05-.2-.11-.25-.18-.05-.07-.08-.16-.08-.26v-1.4c-.65.7-1.33,1.24-2.05,1.63-.71.39-1.5.58-2.37.58-.96,0-1.78-.19-2.44-.56-.67-.37-1.21-.88-1.63-1.51-.42-.63-.73-1.37-.91-2.22-.19-.84-.28-1.74-.28-2.67,0-1.12.12-2.13.36-3.03.24-.9.59-1.66,1.06-2.3.46-.63,1.04-1.12,1.73-1.46.69-.34,1.48-.51,2.38-.51.71,0,1.35.14,1.93.43.58.29,1.15.71,1.71,1.27v-6.84c0-.09.03-.18.08-.25s.15-.14.28-.19c.14-.05.32-.09.55-.12s.51-.04.86-.04.64.01.86.04c.23.03.41.07.54.12.13.05.23.12.28.19s.09.16.09.25v18.59ZM228.71,450.62c-.51-.64-1-1.13-1.47-1.47-.47-.34-.96-.51-1.47-.51-.46,0-.86.12-1.2.35-.33.23-.6.54-.81.93-.2.39-.35.82-.45,1.3s-.15.97-.15,1.47c0,.53.04,1.04.13,1.54.09.5.22.95.42,1.34.19.39.45.71.77.94s.73.35,1.22.35c.25,0,.48-.04.72-.11.23-.07.47-.19.71-.35.24-.16.49-.37.74-.63.26-.26.53-.58.84-.96v-4.19Z"/>
    <path class="cls-1" d="M244.67,458.08c0,.27-.01.51-.04.7s-.07.35-.11.46-.11.19-.18.23-.16.06-.25.06h-8.26c-.26,0-.45-.09-.59-.25-.14-.17-.21-.45-.21-.84v-.65c0-.17,0-.32.02-.46.01-.14.04-.27.09-.4.04-.13.1-.26.17-.39s.16-.28.28-.44l4.73-7.31h-4.48c-.18,0-.32-.11-.43-.34-.11-.23-.16-.59-.16-1.09,0-.27.01-.5.04-.69.02-.18.06-.33.11-.44.05-.11.11-.19.18-.23s.17-.07.27-.07h7.72c.13,0,.25.01.34.04s.17.08.23.16c.06.08.11.18.14.31.03.13.05.3.05.5v.69c0,.19-.01.36-.03.5-.02.15-.05.29-.09.42-.04.13-.09.26-.16.4-.07.13-.15.27-.25.43l-4.7,7.3h4.99c.09,0,.16.02.24.06.07.04.14.11.19.21.05.1.09.25.12.43.03.18.04.42.04.7Z"/>
    <path class="cls-1" d="M251.2,442.14c0,.72-.15,1.21-.44,1.49-.29.27-.84.41-1.63.41s-1.34-.13-1.62-.4c-.28-.26-.42-.74-.42-1.43s.14-1.22.43-1.49c.29-.28.83-.42,1.64-.42s1.33.13,1.62.4c.28.27.42.75.42,1.44ZM250.93,459.06c0,.09-.03.18-.08.25-.06.07-.15.13-.29.18-.14.05-.32.08-.55.11-.23.02-.51.04-.86.04s-.64-.01-.86-.04c-.23-.02-.41-.06-.55-.11-.14-.05-.23-.11-.29-.18s-.09-.15-.09-.25v-12.61c0-.09.03-.18.09-.25s.15-.13.29-.18.32-.09.55-.12c.23-.03.51-.04.86-.04s.64.01.86.04.41.07.55.12.23.11.29.18c.06.07.08.15.08.25v12.61Z"/>
    <path class="cls-1" d="M265.26,459.1c0,.13-.05.24-.14.31-.09.08-.24.13-.45.16-.2.03-.5.05-.9.05-.42,0-.73-.02-.93-.05-.19-.03-.33-.09-.41-.16-.08-.08-.12-.18-.12-.31v-1.01c-.52.56-1.11.99-1.78,1.3-.67.31-1.41.47-2.22.47-.67,0-1.29-.09-1.85-.26s-1.05-.43-1.46-.78-.73-.77-.96-1.28c-.23-.51-.34-1.11-.34-1.78,0-.74.14-1.38.43-1.92.29-.54.72-.99,1.29-1.35.57-.35,1.28-.62,2.13-.79.85-.17,1.84-.25,2.96-.25h1.23v-.76c0-.4-.04-.74-.12-1.04s-.21-.55-.4-.74c-.18-.2-.43-.34-.74-.44-.31-.09-.69-.14-1.14-.14-.6,0-1.13.07-1.59.2s-.88.28-1.24.44c-.36.16-.66.31-.9.44-.24.13-.44.2-.59.2-.1,0-.2-.03-.28-.1-.08-.07-.15-.16-.2-.28-.05-.12-.09-.27-.12-.45s-.04-.38-.04-.6c0-.29.02-.52.07-.69.05-.17.14-.32.27-.46.13-.14.36-.29.69-.45.33-.17.72-.32,1.16-.46.44-.14.93-.26,1.45-.35s1.06-.13,1.62-.13c.99,0,1.84.1,2.54.29.7.19,1.28.49,1.74.89s.78.92.99,1.55c.21.63.31,1.38.31,2.25v8.5ZM261.76,453.69h-1.36c-.58,0-1.07.04-1.47.13-.41.08-.74.21-.99.38-.26.17-.44.38-.56.62-.12.24-.18.52-.18.83,0,.53.17.94.5,1.25s.8.45,1.4.45c.5,0,.96-.13,1.38-.38s.85-.63,1.28-1.12v-2.15Z"/>
    <path class="cls-1" d="M292.08,450.16c0,1.52-.19,2.88-.57,4.08-.38,1.2-.94,2.22-1.69,3.05-.75.84-1.67,1.47-2.77,1.91-1.1.44-2.37.66-3.82.66s-2.67-.19-3.73-.56c-1.06-.37-1.95-.94-2.66-1.71-.71-.76-1.24-1.74-1.59-2.92-.35-1.18-.53-2.58-.53-4.19,0-1.48.19-2.82.57-4,.38-1.19.94-2.19,1.69-3.02.75-.83,1.67-1.47,2.77-1.91,1.1-.44,2.38-.67,3.83-.67s2.61.18,3.68.55c1.06.37,1.95.94,2.66,1.7.71.76,1.25,1.73,1.62,2.9.36,1.17.55,2.54.55,4.13ZM288.17,450.36c0-.96-.08-1.84-.23-2.63-.15-.79-.41-1.46-.77-2.03-.36-.56-.85-1-1.45-1.3-.6-.31-1.36-.46-2.27-.46s-1.68.17-2.3.52c-.61.34-1.11.81-1.49,1.38-.38.58-.64,1.25-.8,2.02-.16.77-.23,1.58-.23,2.44,0,1,.08,1.9.23,2.7.15.8.41,1.48.76,2.05s.84,1,1.45,1.3c.6.3,1.36.45,2.28.45s1.68-.17,2.3-.51c.61-.34,1.11-.8,1.49-1.39.38-.59.64-1.27.8-2.05s.23-1.61.23-2.49Z"/>
    <path class="cls-1" d="M307.14,452.56c0,1.12-.12,2.14-.36,3.04-.24.9-.59,1.67-1.06,2.3-.46.63-1.04,1.12-1.73,1.46-.69.34-1.48.51-2.37.51-.37,0-.71-.04-1.01-.11-.31-.07-.6-.18-.89-.33-.29-.15-.57-.33-.86-.55-.28-.22-.58-.47-.88-.76v5.95c0,.09-.03.18-.08.25-.06.08-.15.14-.29.19s-.32.09-.55.12-.51.04-.86.04-.64-.01-.86-.04c-.23-.03-.41-.07-.55-.12s-.23-.12-.29-.19c-.06-.08-.09-.16-.09-.25v-17.65c0-.09.02-.18.07-.25.05-.07.13-.13.25-.18s.27-.08.47-.11c.19-.02.44-.04.73-.04s.52.01.72.04c.19.02.35.06.47.11s.2.11.25.18.07.15.07.25v1.49c.37-.38.73-.71,1.08-1,.35-.29.72-.53,1.08-.72.37-.19.75-.34,1.14-.43.39-.09.81-.14,1.25-.14.93,0,1.71.18,2.37.55.65.36,1.18.86,1.59,1.49s.71,1.37.9,2.21c.19.84.28,1.74.28,2.69ZM303.43,452.81c0-.54-.04-1.06-.12-1.55-.08-.5-.22-.94-.41-1.32-.19-.39-.45-.7-.77-.93-.32-.23-.71-.35-1.18-.35-.24,0-.47.04-.7.11-.23.07-.47.19-.71.35-.24.16-.49.37-.74.62-.26.25-.52.57-.81.95v4.17c.5.63.98,1.12,1.43,1.47s.93.52,1.42.52c.46,0,.86-.12,1.18-.35.33-.24.59-.55.8-.93.21-.38.36-.81.46-1.3s.15-.96.15-1.45Z"/>
    <path class="cls-1" d="M321.66,452.37c0,.43-.1.76-.29.96-.19.21-.46.31-.8.31h-7.69c0,.54.06,1.03.19,1.47s.33.81.61,1.12.64.54,1.08.7c.44.16.97.24,1.58.24s1.17-.04,1.64-.13c.47-.09.88-.19,1.23-.3.34-.11.63-.21.86-.3.23-.09.41-.13.55-.13.09,0,.16.02.21.05.06.03.1.09.14.18.04.08.06.21.08.36.01.16.02.35.02.59,0,.21,0,.39-.01.53,0,.15-.02.27-.04.38-.02.1-.05.19-.09.26s-.09.14-.15.21c-.06.07-.23.16-.5.27-.27.11-.62.22-1.05.33-.42.11-.91.2-1.46.28-.55.08-1.13.12-1.76.12-1.12,0-2.11-.14-2.95-.43-.84-.28-1.55-.71-2.12-1.29s-.99-1.3-1.27-2.18c-.28-.88-.42-1.91-.42-3.09s.15-2.14.44-3.04c.29-.9.72-1.67,1.28-2.3.56-.63,1.24-1.11,2.03-1.44.8-.33,1.7-.5,2.7-.5,1.06,0,1.96.16,2.71.47.75.31,1.37.74,1.85,1.3s.84,1.21,1.06,1.96c.23.76.34,1.58.34,2.47v.57ZM318.2,451.35c.03-1-.17-1.79-.6-2.36s-1.09-.86-1.99-.86c-.45,0-.85.09-1.18.25-.34.17-.61.4-.84.69-.22.29-.39.63-.51,1.02-.12.39-.19.81-.2,1.25h5.33Z"/>
    <path class="cls-1" d="M336.67,459.06c0,.09-.03.18-.09.25s-.15.13-.28.18c-.13.05-.31.08-.55.11-.23.02-.52.04-.86.04s-.64-.01-.87-.04c-.23-.02-.41-.06-.55-.11-.13-.05-.23-.11-.28-.18s-.09-.15-.09-.25v-7.21c0-.61-.04-1.1-.13-1.45-.09-.35-.22-.65-.39-.9-.17-.25-.39-.44-.66-.58-.27-.14-.58-.21-.94-.21-.45,0-.91.17-1.37.5-.46.33-.95.81-1.45,1.45v8.4c0,.09-.03.18-.08.25-.06.07-.15.13-.29.18-.14.05-.32.08-.55.11-.23.02-.51.04-.86.04s-.64-.01-.86-.04c-.23-.02-.41-.06-.55-.11-.14-.05-.23-.11-.29-.18s-.09-.15-.09-.25v-12.64c0-.09.02-.18.07-.25.05-.07.13-.13.25-.18s.28-.08.47-.11c.19-.02.44-.04.73-.04s.55.01.75.04c.2.02.35.06.46.11.11.05.19.11.23.18s.07.15.07.25v1.46c.7-.76,1.41-1.32,2.13-1.7.72-.38,1.48-.57,2.26-.57.86,0,1.58.14,2.17.43s1.07.67,1.43,1.15c.36.49.63,1.06.79,1.71.16.65.24,1.44.24,2.35v7.81Z"/>
    <path class="cls-1" d="M351.25,454.04c0,.96-.18,1.81-.54,2.54-.36.73-.85,1.33-1.46,1.82-.61.49-1.33.85-2.15,1.1-.82.25-1.7.37-2.64.37-.63,0-1.22-.05-1.76-.16s-1.02-.23-1.44-.38c-.42-.15-.76-.3-1.04-.46-.28-.16-.48-.3-.6-.42-.12-.12-.21-.3-.26-.53s-.08-.56-.08-1c0-.29,0-.54.03-.74s.05-.36.09-.48c.04-.12.1-.21.17-.26s.15-.08.25-.08c.13,0,.32.08.56.23.24.16.55.33.93.52.38.19.83.36,1.35.52.52.16,1.13.23,1.82.23.45,0,.86-.05,1.22-.16.36-.11.66-.26.91-.46.25-.2.44-.44.57-.74s.2-.62.2-.98c0-.42-.11-.77-.34-1.07-.23-.3-.52-.56-.89-.79s-.78-.45-1.24-.65c-.46-.2-.94-.42-1.43-.64-.49-.23-.97-.48-1.43-.77-.46-.29-.88-.63-1.24-1.03-.36-.4-.66-.88-.89-1.42-.23-.55-.34-1.2-.34-1.97,0-.88.16-1.65.49-2.32.33-.67.77-1.22,1.32-1.66.55-.44,1.2-.77,1.95-.98.75-.22,1.55-.33,2.39-.33.43,0,.87.03,1.3.1s.84.16,1.22.27c.38.11.71.24,1.01.38.29.14.49.26.58.35.09.09.16.17.19.24.03.07.06.15.09.26.02.11.04.25.05.41s.01.37.01.62c0,.27,0,.51-.02.69-.01.19-.04.34-.07.47-.03.12-.08.21-.14.27-.06.06-.14.09-.25.09s-.27-.07-.5-.2c-.23-.13-.51-.28-.84-.43-.33-.16-.71-.3-1.15-.42s-.91-.19-1.43-.19c-.41,0-.76.05-1.06.15-.3.1-.56.24-.76.41-.2.17-.35.38-.45.63-.1.25-.15.51-.15.78,0,.41.11.76.33,1.06.22.3.52.56.89.79.37.23.8.45,1.27.65.47.2.95.42,1.44.64s.97.48,1.44.77.89.63,1.26,1.03.67.87.89,1.42c.23.54.34,1.18.34,1.92Z"/>
    <path class="cls-1" d="M366.66,452.61c0,1.08-.14,2.06-.42,2.95-.28.89-.71,1.65-1.29,2.3-.58.64-1.3,1.14-2.17,1.49-.87.35-1.88.52-3.05.52s-2.1-.16-2.93-.47c-.83-.31-1.52-.77-2.07-1.36-.55-.59-.95-1.33-1.22-2.2-.26-.87-.4-1.86-.4-2.98s.14-2.06.43-2.95c.29-.89.72-1.66,1.3-2.3s1.3-1.13,2.16-1.48c.86-.35,1.88-.52,3.04-.52s2.12.15,2.95.46c.83.31,1.52.76,2.06,1.35.54.59.95,1.33,1.21,2.2.26.87.4,1.87.4,2.99ZM362.99,452.75c0-.62-.05-1.2-.15-1.72-.1-.52-.27-.98-.5-1.37-.24-.39-.55-.69-.94-.91s-.89-.33-1.48-.33c-.53,0-.99.1-1.39.29-.4.19-.72.48-.98.85-.25.37-.45.82-.57,1.35s-.19,1.12-.19,1.79c0,.62.05,1.2.16,1.72s.27.98.5,1.37c.23.39.55.69.94.9.4.21.89.32,1.47.32.54,0,1.01-.1,1.4-.29.4-.19.72-.47.98-.84.25-.37.44-.81.57-1.34.12-.52.18-1.12.18-1.79Z"/>
    <path class="cls-1" d="M380.88,459.06c0,.09-.02.18-.07.25s-.13.13-.25.18c-.12.05-.27.08-.47.11-.19.02-.44.04-.73.04-.31,0-.56-.01-.76-.04-.19-.02-.35-.06-.46-.11-.11-.05-.19-.11-.24-.18-.05-.07-.07-.15-.07-.25v-1.46c-.7.76-1.41,1.32-2.13,1.7-.72.38-1.47.57-2.25.57-.87,0-1.6-.14-2.19-.43-.59-.28-1.07-.67-1.43-1.16s-.62-1.06-.78-1.71c-.16-.65-.23-1.45-.23-2.42v-7.74c0-.09.03-.18.08-.25.05-.07.15-.13.28-.18s.32-.08.55-.11c.23-.02.52-.04.86-.04s.64.01.86.04c.23.02.41.06.55.11s.23.11.29.18.09.15.09.25v7.14c0,.66.04,1.17.13,1.52.09.35.22.65.39.9.17.25.4.44.67.58.27.14.58.21.94.21.45,0,.91-.17,1.37-.5s.95-.81,1.47-1.45v-8.4c0-.09.03-.18.08-.25s.15-.13.28-.18.32-.08.55-.11c.23-.02.51-.04.86-.04s.64.01.86.04c.23.02.41.06.54.11s.23.11.28.18.09.15.09.25v12.64Z"/>
    <path class="cls-1" d="M391.43,447.6c0,.34,0,.62-.03.84-.02.22-.05.39-.09.51-.04.12-.09.21-.15.25-.06.05-.14.07-.23.07-.08,0-.16-.02-.25-.05-.09-.03-.2-.07-.32-.11s-.25-.07-.39-.11-.3-.05-.47-.05c-.2,0-.4.04-.6.12-.2.08-.4.21-.62.38-.21.17-.43.4-.67.68s-.48.63-.74,1.05v7.88c0,.09-.03.18-.08.25-.06.07-.15.13-.29.18-.14.05-.32.08-.55.11-.23.02-.51.04-.86.04s-.64-.01-.86-.04c-.23-.02-.41-.06-.55-.11-.14-.05-.23-.11-.29-.18s-.09-.15-.09-.25v-12.64c0-.09.02-.18.07-.25.05-.07.13-.13.25-.18s.28-.08.47-.11c.19-.02.44-.04.73-.04s.55.01.75.04c.2.02.35.06.46.11.11.05.19.11.23.18s.07.15.07.25v1.57c.33-.47.64-.86.94-1.17.29-.31.57-.55.84-.73.26-.18.53-.3.79-.38.26-.07.53-.11.79-.11.12,0,.26,0,.4.02.14.01.29.04.44.07.15.03.28.07.4.11.11.04.2.09.25.13.05.05.09.1.11.16.02.06.04.13.06.23.02.1.03.25.04.45s.01.47.01.81Z"/>
    <path class="cls-1" d="M402.78,457.05c0,.25,0,.45-.02.62s-.03.3-.06.42c-.02.11-.05.21-.09.28-.03.07-.11.16-.22.27-.11.11-.31.24-.58.4-.27.16-.59.3-.93.42-.35.12-.73.22-1.14.3s-.83.11-1.27.11c-.97,0-1.83-.15-2.59-.45-.75-.3-1.38-.75-1.89-1.34-.51-.59-.89-1.31-1.15-2.16-.26-.85-.39-1.82-.39-2.92,0-1.27.16-2.36.47-3.28.32-.92.76-1.68,1.33-2.29s1.24-1.05,2.01-1.35c.77-.29,1.62-.44,2.55-.44.38,0,.75.03,1.11.1.36.07.7.16,1.02.27.32.11.6.24.85.38.25.14.43.26.53.37.1.1.18.19.22.26s.08.16.1.28.04.25.06.42.02.37.02.6c0,.55-.05.93-.14,1.15-.09.22-.22.33-.37.33-.16,0-.33-.07-.51-.2-.18-.13-.39-.28-.64-.44-.25-.16-.54-.31-.88-.44-.34-.13-.75-.2-1.22-.2-.93,0-1.63.36-2.13,1.07-.49.71-.74,1.76-.74,3.14,0,.68.06,1.28.18,1.8s.31.95.55,1.3c.24.35.54.61.91.79.36.17.79.26,1.27.26s.91-.07,1.27-.22c.35-.15.66-.31.93-.49.26-.18.49-.34.67-.49.18-.15.33-.22.45-.22.09,0,.16.02.21.07.06.05.1.13.13.26.03.13.06.29.08.49.02.2.03.45.03.76Z"/>
    <path class="cls-1" d="M416.45,452.37c0,.43-.1.76-.29.96-.19.21-.46.31-.8.31h-7.69c0,.54.06,1.03.19,1.47s.33.81.61,1.12.64.54,1.08.7c.44.16.97.24,1.58.24s1.17-.04,1.64-.13c.47-.09.88-.19,1.23-.3.34-.11.63-.21.86-.3.23-.09.41-.13.55-.13.09,0,.16.02.21.05.06.03.1.09.14.18.04.08.06.21.08.36.01.16.02.35.02.59,0,.21,0,.39-.01.53,0,.15-.02.27-.04.38-.02.1-.05.19-.09.26s-.09.14-.15.21c-.06.07-.23.16-.5.27-.27.11-.62.22-1.05.33-.42.11-.91.2-1.46.28-.55.08-1.13.12-1.76.12-1.12,0-2.11-.14-2.95-.43-.84-.28-1.55-.71-2.12-1.29s-.99-1.3-1.27-2.18c-.28-.88-.42-1.91-.42-3.09s.15-2.14.44-3.04c.29-.9.72-1.67,1.28-2.3.56-.63,1.24-1.11,2.03-1.44.8-.33,1.7-.5,2.7-.5,1.06,0,1.96.16,2.71.47.75.31,1.37.74,1.85,1.3.48.55.84,1.21,1.06,1.96.23.76.34,1.58.34,2.47v.57ZM413,451.35c.03-1-.17-1.79-.6-2.36s-1.09-.86-1.99-.86c-.45,0-.85.09-1.18.25-.34.17-.61.4-.84.69-.22.29-.39.63-.51,1.02-.12.39-.19.81-.2,1.25h5.33Z"/>
    <path class="cls-1" d="M440.86,444.06c0,.27-.01.51-.04.71s-.06.36-.1.47c-.04.12-.09.2-.16.25s-.13.07-.22.07c-.12,0-.32-.08-.6-.25-.27-.17-.64-.35-1.09-.55s-.99-.38-1.62-.55c-.63-.17-1.36-.25-2.19-.25-.89,0-1.69.15-2.41.46-.72.31-1.33.74-1.84,1.3-.51.56-.9,1.24-1.18,2.03-.27.79-.41,1.66-.41,2.61,0,1.05.14,1.97.42,2.77.28.8.67,1.47,1.17,2s1.1.94,1.81,1.22,1.48.41,2.33.41c.42,0,.83-.05,1.23-.14.41-.09.78-.24,1.13-.43v-4.25h-3.47c-.17,0-.3-.11-.4-.32-.09-.21-.14-.57-.14-1.08,0-.26.01-.49.04-.67s.06-.32.11-.43c.05-.11.1-.19.17-.24.07-.05.14-.08.23-.08h6.19c.15,0,.29.03.4.08.12.05.22.13.31.23.09.1.16.23.2.38.05.15.07.31.07.5v7.3c0,.28-.05.53-.15.74-.1.21-.3.38-.61.5-.31.12-.69.25-1.14.38-.45.13-.92.25-1.41.34s-.98.17-1.47.21-.99.07-1.5.07c-1.46,0-2.77-.21-3.93-.63s-2.14-1.03-2.94-1.83c-.8-.8-1.42-1.77-1.84-2.92s-.64-2.45-.64-3.9.23-2.85.68-4.04,1.1-2.21,1.93-3.05c.83-.84,1.83-1.48,3.01-1.92,1.18-.44,2.49-.67,3.93-.67.79,0,1.52.05,2.17.16.65.11,1.22.24,1.71.4.49.16.89.32,1.21.5.32.18.55.34.67.47.13.13.22.32.28.56.06.24.09.6.09,1.07Z"/>
    <path class="cls-1" d="M448.39,459.03c0,.09-.03.18-.09.25s-.16.14-.31.18c-.14.05-.33.09-.57.11-.24.03-.54.04-.91.04s-.66-.01-.9-.04c-.24-.03-.43-.07-.57-.11-.14-.05-.24-.11-.31-.18s-.09-.16-.09-.25v-17.31c0-.09.03-.18.09-.25.06-.08.17-.14.31-.18.15-.05.34-.09.57-.11.24-.03.53-.04.89-.04s.67.01.91.04c.24.03.43.07.57.11.14.05.24.11.31.18.06.08.09.16.09.25v17.31Z"/>
    <path class="cls-1" d="M463.25,454.04c0,.96-.18,1.81-.54,2.54-.36.73-.85,1.33-1.46,1.82-.61.49-1.33.85-2.15,1.1-.82.25-1.7.37-2.64.37-.63,0-1.22-.05-1.76-.16s-1.02-.23-1.44-.38c-.42-.15-.76-.3-1.04-.46-.28-.16-.48-.3-.6-.42-.12-.12-.21-.3-.26-.53s-.08-.56-.08-1c0-.29,0-.54.03-.74s.05-.36.09-.48c.04-.12.1-.21.17-.26s.15-.08.25-.08c.13,0,.32.08.56.23.24.16.55.33.93.52.38.19.83.36,1.35.52.52.16,1.13.23,1.82.23.45,0,.86-.05,1.22-.16.36-.11.66-.26.91-.46.25-.2.44-.44.57-.74s.2-.62.2-.98c0-.42-.11-.77-.34-1.07-.23-.3-.52-.56-.89-.79s-.78-.45-1.24-.65c-.46-.2-.94-.42-1.43-.64-.49-.23-.97-.48-1.43-.77-.46-.29-.88-.63-1.24-1.03-.36-.4-.66-.88-.89-1.42-.23-.55-.34-1.2-.34-1.97,0-.88.16-1.65.49-2.32.33-.67.77-1.22,1.32-1.66.55-.44,1.2-.77,1.95-.98.75-.22,1.55-.33,2.39-.33.43,0,.87.03,1.3.1s.84.16,1.22.27c.38.11.71.24,1.01.38.29.14.49.26.58.35.09.09.16.17.19.24.03.07.06.15.09.26.02.11.04.25.05.41s.01.37.01.62c0,.27,0,.51-.02.69-.01.19-.04.34-.07.47-.03.12-.08.21-.14.27-.06.06-.14.09-.25.09s-.27-.07-.5-.2c-.23-.13-.51-.28-.84-.43-.33-.16-.71-.3-1.15-.42s-.91-.19-1.43-.19c-.41,0-.76.05-1.06.15-.3.1-.56.24-.76.41-.2.17-.35.38-.45.63-.1.25-.15.51-.15.78,0,.41.11.76.33,1.06.22.3.52.56.89.79.37.23.8.45,1.27.65.47.2.95.42,1.44.64s.97.48,1.44.77.89.63,1.26,1.03.67.87.89,1.42c.23.54.34,1.18.34,1.92Z"/>
  </g>
</svg>