<?xml version="1.0" encoding="UTF-8"?>
<svg id="Warstwa_1" data-name="Warstwa 1" xmlns="http://www.w3.org/2000/svg" xmlns:xlink="http://www.w3.org/1999/xlink" viewBox="0 0 1005.61 1007.19">
  <defs>
    <style>
      .cls-1 {
        fill: none;
      }

      .cls-1, .cls-2 {
        stroke-width: 0px;
      }

      .cls-2, .cls-3 {
        fill: #4c6e4f;
      }

      .cls-3 {
        stroke: #fff;
        stroke-miterlimit: 10;
      }

      .cls-4 {
        clip-path: url(#clippath);
      }
    </style>
    <clipPath id="clippath">
      <path class="cls-1" d="M458.54-1447.53c-258.19,0-468.23,210.05-468.23,468.23s210.05,468.23,468.23,468.23,468.23-210.05,468.23-468.23-210.05-468.23-468.23-468.23ZM458.54-555.77c-233.54,0-423.53-189.99-423.53-423.53s189.99-423.53,423.53-423.53,423.53,189.99,423.53,423.53-189.99,423.53-423.53,423.53ZM721.48-980.19l-26.84-37.06-.63-24.68-24.64-25.7-11.99.54c-4.59-3.07-18.31-14.02-18.31-20.58,0-5.25,8.91-12.43,13.74-13.72v-82.33c0-6.56-13.72-17.5-18.32-20.58h-18.31l-16.57-15.48.53-11.97c-3.63-5.42-30.18-25.15-34.34-25.15h-20.6l-2.17-6.91c-21.79-.44-35.96-27.4-45.91-27.4h-20.6c-1.36,5.09-.53,6.86-6.87,6.86h-20.61l-9.7,13.26-47.54.47-15.58,14.18-18.76-.46c-12.21,8.16-24.8,7.92-25.19,25.15l-6.7,2.71-.17,6.44c0,6.81-21.03,25.73-27.47,27.45v27.44c0,6.32-1.77,5.5-6.87,6.86v6.85c0,5.13-1.81,5.02-4.58,9.15v18.3l-21.55,21.98-1.34,26.04c0,5.38-19.29,23.58-25.19,25.16v27.44c5.1,1.36,6.87.53,6.87,6.86v6.86c0,5.28-1.59,6.86-6.87,6.86h-13.73l-5.73,8.01-1.14,19.44c0,5.27-1.6,6.85-6.87,6.85h-6.86l-12.51,14.96-1.23,5.63c0,6.32-1.76,5.51-6.87,6.86v6.86c0,6.33-1.77,5.5-6.87,6.87v20.58c0,11.13,22.61,31.62,27.47,38.88v32.01c2.92,4.37,53.12,45.74,54.94,45.74h32.06c5.59,0,20.6-15,20.6-20.58v-6.86h54.95c3.22,8.89,13.73,11.03,13.73,18.29v6.86l17.54,8.43,3.49,5.12,6.44.17c1.36-5.1.53-6.86,6.87-6.86h6.86c4.44,0,13.74,9.3,13.74,13.72,0,6.56-13.72,17.51-18.32,20.58h-13.73l-2.72,6.7-47.65.17c-6.34,0-5.51,1.76-6.87,6.85h-38.92c-8.42,0-5.32,6.87-13.74,6.87h-9.15c-8.42,0-5.32-6.87-13.74-6.87h-45.78c-5.52,0-13.74,8.21-13.74,13.72v6.87h141.95c1.36-5.1.53-6.87,6.86-6.87h89.29c6.34,0,5.51,1.77,6.87,6.87l11.35-6.99,2.82,6.83c10.1-2.64,5.35-6.7,13.31-6.7h66.4c1.36,5.1.53,6.87,6.87,6.87h75.55v-6.87c0-4.68-46.58-27.44-48.08-27.44h-80.14l-12.5-14.96-1.23-33.06c0-11.29,25.72-6.86,36.64-6.86,4.71-3.15,5.94-6.86,11.44-6.86h11.45c8.42,0,5.31,6.86,13.73,6.86h2.29c1.74,0,21.75-10.36,23.4-13.21,3.16-5.45,10.81-19.95,10.94-25.66h11.45c8.42,0,5.32-6.87,13.74-6.87h2.28c2.76,0,40.46,31.49,41.21,34.31h25.18c6.33,0,5.5-1.77,6.87-6.86h6.87c5.28,0,6.87-1.59,6.87-6.86v-20.58c5.05-1.34,20.6-15.71,20.6-20.58v-13.72c5.1-1.36,6.87-.54,6.87-6.86v-6.86c5.1-1.36,6.87-.53,6.87-6.86,0-11.13-22.61-31.62-27.47-38.88v-32.02Z"/>
    </clipPath>
  </defs>
  <g class="cls-4">
    <image width="1738" height="1738" transform="translate(2401.7 -1018.25) rotate(109.66) scale(1.58 1.84)" xlink:href="../../../!Tła/TŁO DUŻE DO WKLEJANIA.png"/>
  </g>
  <g>
    <g>
      <path class="cls-3" d="M636.18,331.41c0-3.88,6.58-9.19,10.15-10.14v-60.83c0-4.84-10.14-12.93-13.53-15.2h-13.53l-12.24-11.43.39-8.84c-2.68-4-22.3-18.58-25.37-18.58h-15.22l-1.6-5.1c-16.09-.32-26.57-20.24-33.92-20.24h-15.22c-1.01,3.76-.39,5.07-5.07,5.07h-15.23l-7.16,9.79-35.12.35-11.51,10.48-13.86-.34c-9.02,6.03-18.33,5.85-18.61,18.58l-4.95,2-.13,4.76c0,5.03-15.54,19.01-20.29,20.28v20.27c0,4.67-1.3,4.06-5.07,5.07v5.06c0,3.79-1.34,3.71-3.38,6.76v13.52l-15.92,16.24-.99,19.24c0,3.97-14.25,17.42-18.61,18.59v20.28c3.77,1,5.08.39,5.08,5.07v5.07c0,3.9-1.18,5.07-5.08,5.07h-10.14l-4.23,5.92-.84,14.36c0,3.89-1.18,5.06-5.08,5.06h-5.07l-9.24,11.05-.91,4.16c0,4.67-1.3,4.07-5.07,5.07v5.07c0,4.67-1.31,4.06-5.07,5.07v15.2c0,8.22,16.7,23.36,20.3,28.73v23.65c2.16,3.23,39.24,33.79,40.59,33.79h23.68c4.13,0,15.22-11.08,15.22-15.2v-5.07h40.6c2.38,6.57,10.15,8.15,10.15,13.52v5.07l12.96,6.23,2.58,3.79,4.76.12c1.01-3.77.39-5.07,5.08-5.07h5.07c3.28,0,10.15,6.87,10.15,10.13,0,4.85-10.13,12.94-13.53,15.21h-10.15l-2.01,4.95-35.2.13c-4.68,0-4.07,1.3-5.08,5.06h-28.75c-6.22,0-3.93,5.07-10.15,5.07h-6.76c-6.22,0-3.93-5.07-10.15-5.07h-33.83c-4.08,0-10.15,6.07-10.15,10.14v5.07h104.87c1-3.77.39-5.07,5.07-5.07h65.97c4.68,0,4.07,1.31,5.07,5.07l8.38-5.17,2.08,5.05c7.46-1.95,3.95-4.95,9.83-4.95h49.05c1.01,3.77.39,5.07,5.07,5.07h55.82v-5.07c0-3.46-34.41-20.27-35.52-20.27h-59.2l-9.23-11.05-.91-24.43c0-8.34,19-5.07,27.07-5.07,3.48-2.33,4.39-5.07,8.45-5.07h8.46c6.22,0,3.92,5.07,10.15,5.07h1.69c1.28,0,16.07-7.66,17.29-9.76,2.34-4.02,7.99-14.74,8.08-18.96h8.46c6.22,0,3.93-5.07,10.15-5.07h1.69c2.04,0,29.89,23.27,30.45,25.34h18.6c4.68,0,4.07-1.31,5.07-5.07h5.08c3.9,0,5.07-1.18,5.07-5.07v-15.21c3.73-.99,15.22-11.6,15.22-15.21v-10.14c3.77-1,5.08-.4,5.08-5.07v-5.07c3.77-1,5.07-.4,5.07-5.07,0-8.22-16.7-23.36-20.3-28.72v-23.66l-19.83-27.38-.46-18.23-18.2-18.99-8.86.4c-3.39-2.27-13.53-10.36-13.53-15.2Z"/>
      <path class="cls-3" d="M502.8,757.41c-190.75,0-345.93-155.18-345.93-345.93S312.06,65.55,502.8,65.55s345.93,155.18,345.93,345.93-155.18,345.93-345.93,345.93ZM502.8,98.57c-172.54,0-312.9,140.37-312.9,312.9s140.37,312.9,312.9,312.9,312.9-140.37,312.9-312.9S675.34,98.57,502.8,98.57Z"/>
    </g>
    <g>
      <path class="cls-2" d="M102.3,896.28h-41.3v33.78h47.98v10.28h-60.55v-95.31h59.9v10.28h-47.33v30.7h41.3v10.28Z"/>
      <path class="cls-2" d="M136.86,869.51l.39,8.9c5.41-6.81,12.48-10.21,21.21-10.21,14.97,0,22.52,8.44,22.65,25.33v46.8h-12.11v-46.87c-.04-5.11-1.21-8.88-3.5-11.32-2.29-2.44-5.86-3.67-10.7-3.67-3.93,0-7.38,1.05-10.34,3.14-2.97,2.1-5.28,4.84-6.94,8.25v50.47h-12.11v-70.83h11.46Z"/>
      <path class="cls-2" d="M222.75,923.9l17.54-54.4h12.37l-25.4,70.83h-9.23l-25.66-70.83h12.37l18,54.4Z"/>
      <path class="cls-2" d="M267.06,850.72c0-1.96.6-3.62,1.8-4.97,1.2-1.35,2.98-2.03,5.34-2.03s4.15.68,5.37,2.03c1.22,1.35,1.83,3.01,1.83,4.97s-.61,3.6-1.83,4.91c-1.22,1.31-3.01,1.96-5.37,1.96s-4.14-.65-5.34-1.96c-1.2-1.31-1.8-2.95-1.8-4.91ZM280.15,940.33h-12.11v-70.83h12.11v70.83Z"/>
      <path class="cls-2" d="M336.45,880.37c-1.83-.3-3.82-.46-5.96-.46-7.94,0-13.33,3.38-16.17,10.15v50.27h-12.11v-70.83h11.78l.2,8.18c3.97-6.33,9.6-9.49,16.89-9.49,2.36,0,4.14.31,5.37.92v11.26Z"/>
      <path class="cls-2" d="M340.35,904.27c0-6.94,1.36-13.18,4.09-18.72,2.73-5.54,6.52-9.82,11.39-12.83,4.87-3.01,10.42-4.52,16.66-4.52,9.64,0,17.45,3.34,23.4,10.02,5.96,6.68,8.94,15.56,8.94,26.64v.85c0,6.9-1.32,13.08-3.96,18.56-2.64,5.48-6.42,9.74-11.33,12.8-4.91,3.05-10.55,4.58-16.92,4.58-9.6,0-17.38-3.34-23.34-10.02-5.96-6.68-8.94-15.51-8.94-26.51v-.85ZM352.52,905.71c0,7.86,1.82,14.16,5.46,18.92,3.64,4.76,8.52,7.14,14.63,7.14s11.04-2.41,14.66-7.23c3.62-4.82,5.43-11.57,5.43-20.26,0-7.77-1.84-14.06-5.53-18.89-3.69-4.82-8.59-7.23-14.7-7.23s-10.8,2.38-14.47,7.14c-3.67,4.76-5.5,11.56-5.5,20.42Z"/>
      <path class="cls-2" d="M452.67,897.85c-10.78-3.1-18.62-6.91-23.53-11.42-4.91-4.52-7.36-10.09-7.36-16.72,0-7.51,3-13.71,9-18.62,6-4.91,13.8-7.36,23.4-7.36,6.55,0,12.38,1.27,17.51,3.8,5.13,2.53,9.1,6.02,11.91,10.47,2.81,4.45,4.22,9.32,4.22,14.6h-12.63c0-5.78-1.83-10.32-5.5-13.63-3.67-3.31-8.84-4.96-15.51-4.96-6.2,0-11.03,1.37-14.5,4.1-3.47,2.73-5.2,6.52-5.2,11.38,0,3.89,1.65,7.18,4.94,9.87,3.3,2.69,8.9,5.15,16.82,7.38,7.92,2.23,14.12,4.69,18.59,7.37,4.47,2.68,7.79,5.82,9.95,9.39,2.16,3.58,3.24,7.79,3.24,12.63,0,7.72-3.01,13.91-9.03,18.56-6.02,4.65-14.07,6.97-24.15,6.97-6.55,0-12.66-1.26-18.33-3.76s-10.05-5.95-13.12-10.31c-3.08-4.36-4.61-9.32-4.61-14.86h12.63c0,5.76,2.13,10.31,6.38,13.65,4.25,3.34,9.94,5.01,17.05,5.01,6.63,0,11.72-1.35,15.25-4.06,3.53-2.7,5.3-6.39,5.3-11.06s-1.64-8.28-4.91-10.83c-3.27-2.55-9.21-5.07-17.8-7.56Z"/>
      <path class="cls-2" d="M499.02,904.27c0-6.94,1.36-13.18,4.09-18.72,2.73-5.54,6.52-9.82,11.39-12.83,4.87-3.01,10.42-4.52,16.66-4.52,9.64,0,17.45,3.34,23.4,10.02,5.96,6.68,8.94,15.56,8.94,26.64v.85c0,6.9-1.32,13.08-3.96,18.56-2.64,5.48-6.42,9.74-11.33,12.8-4.91,3.05-10.55,4.58-16.92,4.58-9.6,0-17.38-3.34-23.34-10.02-5.96-6.68-8.94-15.51-8.94-26.51v-.85ZM511.19,905.71c0,7.86,1.82,14.16,5.46,18.92,3.64,4.76,8.52,7.14,14.63,7.14s11.04-2.41,14.66-7.23c3.62-4.82,5.43-11.57,5.43-20.26,0-7.77-1.84-14.06-5.53-18.89-3.69-4.82-8.59-7.23-14.7-7.23s-10.8,2.38-14.47,7.14c-3.67,4.76-5.5,11.56-5.5,20.42Z"/>
      <path class="cls-2" d="M591.84,940.33h-12.11v-100.55h12.11v100.55Z"/>
      <path class="cls-2" d="M652.26,933.33c-4.71,5.54-11.63,8.31-20.75,8.31-7.55,0-13.3-2.19-17.25-6.58-3.95-4.39-5.95-10.88-5.99-19.47v-46.08h12.11v45.76c0,10.73,4.36,16.1,13.09,16.1,9.25,0,15.4-3.45,18.46-10.34v-51.52h12.11v70.83h-11.52l-.26-7Z"/>
      <path class="cls-2" d="M698.87,852.36v17.15h13.22v9.36h-13.22v43.98c0,2.84.59,4.97,1.77,6.39,1.18,1.42,3.18,2.13,6.02,2.13,1.4,0,3.32-.26,5.76-.79v9.76c-3.19.87-6.28,1.3-9.3,1.3-5.41,0-9.49-1.64-12.24-4.91-2.75-3.27-4.12-7.92-4.12-13.94v-43.92h-12.9v-9.36h12.9v-17.15h12.11Z"/>
      <path class="cls-2" d="M726.3,850.72c0-1.96.6-3.62,1.8-4.97,1.2-1.35,2.98-2.03,5.34-2.03s4.15.68,5.37,2.03c1.22,1.35,1.83,3.01,1.83,4.97s-.61,3.6-1.83,4.91c-1.22,1.31-3.01,1.96-5.37,1.96s-4.14-.65-5.34-1.96c-1.2-1.31-1.8-2.95-1.8-4.91ZM739.39,940.33h-12.11v-70.83h12.11v70.83Z"/>
      <path class="cls-2" d="M755.56,904.27c0-6.94,1.36-13.18,4.09-18.72,2.73-5.54,6.52-9.82,11.39-12.83,4.87-3.01,10.42-4.52,16.66-4.52,9.64,0,17.45,3.34,23.4,10.02,5.96,6.68,8.94,15.56,8.94,26.64v.85c0,6.9-1.32,13.08-3.96,18.56-2.64,5.48-6.42,9.74-11.33,12.8-4.91,3.05-10.55,4.58-16.92,4.58-9.6,0-17.38-3.34-23.34-10.02-5.96-6.68-8.94-15.51-8.94-26.51v-.85ZM767.73,905.71c0,7.86,1.82,14.16,5.46,18.92,3.64,4.76,8.52,7.14,14.63,7.14s11.04-2.41,14.66-7.23c3.62-4.82,5.43-11.57,5.43-20.26,0-7.77-1.84-14.06-5.53-18.89-3.69-4.82-8.59-7.23-14.7-7.23s-10.8,2.38-14.47,7.14c-3.67,4.76-5.5,11.56-5.5,20.42Z"/>
      <path class="cls-2" d="M846.68,869.51l.39,8.9c5.41-6.81,12.48-10.21,21.21-10.21,14.97,0,22.52,8.44,22.65,25.33v46.8h-12.11v-46.87c-.04-5.11-1.21-8.88-3.5-11.32-2.29-2.44-5.86-3.67-10.7-3.67-3.93,0-7.38,1.05-10.34,3.14-2.97,2.1-5.28,4.84-6.94,8.25v50.47h-12.11v-70.83h11.46Z"/>
      <path class="cls-2" d="M945.07,921.55c0-3.27-1.23-5.81-3.7-7.63-2.47-1.81-6.76-3.37-12.9-4.68-6.13-1.31-11-2.88-14.6-4.71-3.6-1.83-6.26-4.01-7.99-6.55-1.72-2.53-2.59-5.54-2.59-9.03,0-5.8,2.45-10.71,7.36-14.73,4.91-4.01,11.18-6.02,18.82-6.02,8.03,0,14.54,2.07,19.54,6.22,5,4.15,7.49,9.45,7.49,15.91h-12.17c0-3.32-1.41-6.17-4.22-8.57-2.82-2.4-6.36-3.6-10.64-3.6s-7.85.96-10.34,2.88c-2.49,1.92-3.73,4.43-3.73,7.53,0,2.92,1.16,5.13,3.47,6.61,2.31,1.48,6.49,2.9,12.54,4.26,6.04,1.35,10.94,2.97,14.7,4.84,3.75,1.88,6.53,4.13,8.35,6.77,1.81,2.64,2.72,5.86,2.72,9.66,0,6.33-2.53,11.4-7.59,15.22-5.06,3.82-11.63,5.73-19.7,5.73-5.67,0-10.69-1-15.06-3.01-4.36-2.01-7.78-4.81-10.24-8.41-2.47-3.6-3.7-7.49-3.7-11.68h12.11c.22,4.06,1.84,7.28,4.88,9.66,3.03,2.38,7.04,3.57,12.01,3.57,4.58,0,8.26-.93,11.03-2.78,2.77-1.85,4.16-4.33,4.16-7.43Z"/>
    </g>
  </g>
</svg>